SEEDBOX SUPPORTED, AS ALWAYS!

*******************************************************************************
              Missiles From Hell aka The Battle of the V-1 (1958)
*******************************************************************************

-------------------------------------------------------------------------------
                              General Information
-------------------------------------------------------------------------------
Type.................: Movie



Video Format.........: AVI
Video Bitrate........: 1679
Resolution...........: 352 x 264
Color................: 8 bit
FPS..................: 29.97
Source...............: DVD 4x3
Original Format......: NTSC
Genre................: War
IMDb Rating..........: 5.5
Movie Information....: http://www.imdb.com/title/tt0051402

-------------------------------------------------------------------------------
                                 Release Notes
-------------------------------------------------------------------------------
Classic war drama of the infamous V-1 rockets with Michael Rennie.  Watch for 
Christopher Lee as a German Officer (brief appearance).  Rumor has it that Rod 
Steiger has an unbilled brief appearance as a German in this film as well, but I 
am unable to find him.

This is a DVDRip which appears to have been made from an original print.

General
Complete name                            : G:Missiles From Hell aka Battle of 
the V-1 (1958)DVD_VIDEO_RECORDER_Title3.avi
Format                                   : AVI
Format/Info                              : Audio Video Interleave
File size                                : 960 MiB
Duration                                 : 1h 19mn
Overall bit rate                         : 1 679 Kbps
Movie name                               : DVD_VIDEO_RECORDER
Writing application                      : MEncoder 5.0
Writing library                          : [= DigiArty videodll! =]
Video
ID                                       : 0
Format                                   : MPEG-4 Visual
Format profile                           : Simple@L1
Format settings, BVOP                    : No
Format settings, QPel                    : No
Format settings, GMC                     : No warppoints
Format settings, Matrix                  : Default (H.263)
Codec ID                                 : DX50
Codec ID/Hint                            : DivX 5
Duration                                 : 1h 19mn
Bit rate                                 : 1 417 Kbps
Width                                    : 352 pixels
Height                                   : 264 pixels
Display aspect ratio                     : 4:3
Frame rate                               : 29.970 fps
Color space                              : YUV
Chroma subsampling                       : 4:2:0
Bit depth                                : 8 bits
Scan type                                : Progressive
Compression mode                         : Lossy
Bits/(Pixel*Frame)                       : 0.509
Stream size                              : 810 MiB (84%)
Writing library                          : Lavc54.71.100

Audio
ID                                       : 1
Format                                   : AC-3
Format/Info                              : Audio Coding 3
Mode extension                           : CM (complete main)
Format settings, Endianness              : Big
Codec ID                                 : 2000
Duration                                 : 1h 19mn
Bit rate mode                            : Constant
Bit rate                                 : 256 Kbps
Channel(s)                               : 2 channels
Channel positions                        : Front: L R
Sampling rate                            : 48.0 KHz
Bit depth                                : 16 bits
Compression mode                         : Lossy
Stream size                              : 146 MiB (15%)
Alignment                                : Split accross interleaves
Interleave, duration                     : 500 ms (14.98 video frames)
Interleave, preload duration             : 500 ms

Enjoy!

RadioResearch



-------------------------------------------------------------------------------
Generated with Cool NFO Creator - http://fly.to/coolbeans
-------------------------------------------------------------------------------
